<?xml version="1.0" standalone="no"?><!DOCTYPE svg PUBLIC "-//W3C//DTD SVG 1.1//EN" "http://www.w3.org/Graphics/SVG/1.1/DTD/svg11.dtd"><svg t="1699935896568" class="icon" viewBox="0 0 1024 1024" version="1.1" xmlns="http://www.w3.org/2000/svg" p-id="13100" xmlns:xlink="http://www.w3.org/1999/xlink" width="24" height="24"><path d="M512 64c126.72 3.328 232.192 47.168 316.48 131.456C912.832 279.872 956.672 385.344 960 512c-3.328 126.72-47.168 232.192-131.52 316.48C744.192 912.832 638.72 956.672 512 960c-126.72-3.328-232.192-47.168-316.544-131.52C111.232 744.192 67.392 638.72 64 512c3.328-126.72 47.168-232.192 131.456-316.544C279.872 111.232 385.344 67.392 512 64z m-56 536L356.992 500.992a39.488 39.488 0 0 0-27.52-11.008 37.056 37.056 0 0 0-26.944 11.52 36.224 36.224 0 0 0-11.52 26.432c0 10.048 3.712 19.008 11.008 27.008l126.976 127.04a36.736 36.736 0 0 0 27.008 11.008 36.736 36.736 0 0 0 27.072-11.008l262.976-263.04a35.84 35.84 0 0 0 9.536-36.48 35.072 35.072 0 0 0-27.008-27.008 35.84 35.84 0 0 0-36.544 9.472L456 600z" fill="#74B666" fill-opacity="1" p-id="13101"></path></svg>