<?xml version="1.0" standalone="no"?><!DOCTYPE svg PUBLIC "-//W3C//DTD SVG 1.1//EN" "http://www.w3.org/Graphics/SVG/1.1/DTD/svg11.dtd"><svg t="1699935573466" class="icon" viewBox="0 0 1024 1024" version="1.1" xmlns="http://www.w3.org/2000/svg" p-id="6670" width="24" height="24" xmlns:xlink="http://www.w3.org/1999/xlink"><path d="M458.922667 503.210667H314.965333a41.6 41.6 0 1 0 0 83.2h143.957334v144a41.6 41.6 0 0 0 83.2 0v-144h144a41.6 41.6 0 0 0 0-83.2h-144V359.253333a41.6 41.6 0 0 0-83.2 0v143.957334zM502.186667 160.853333c211.968 0 384 172.032 384 384s-172.032 384-384 384-384-172.032-384-384 172.032-384 384-384z" fill="#6944BA" p-id="6671" data-spm-anchor-id="a313x.search_index.0.i2.60773a81iRec5Y" class="selected"></path></svg>