<?xml version="1.0" standalone="no"?><!DOCTYPE svg PUBLIC "-//W3C//DTD SVG 1.1//EN" "http://www.w3.org/Graphics/SVG/1.1/DTD/svg11.dtd"><svg t="1697537122232" class="icon" viewBox="0 0 1024 1024" version="1.1" xmlns="http://www.w3.org/2000/svg" p-id="9957" xmlns:xlink="http://www.w3.org/1999/xlink" width="20" height="20"><path d="M680 352c-39.808 0-71.552 15.808-94.464 47.104-23.232 31.104-34.432 71.552-34.432 121.344 0 46.4 10.24 83.072 32.256 110.08 22.08 27.52 54.4 41.472 96.128 41.472 33.92 0 62.592-10.432 85.568-30.528 23.04-20.096 35.008-45.888 35.008-77.184 0-30.272-9.984-55.68-30.208-75.328-20.288-19.84-47.36-29.44-80.64-29.44-17.024 0-32.448 2.624-46.08 8.832-12.16 5.184-22.72 12.544-31.488 22.592 0.64-25.472 6.528-46.592 18.368-63.552 12.416-18.944 28.8-27.84 49.536-27.84 15.104 0 26.88 3.328 35.648 9.6 8.768 6.4 14.848 16 17.92 29.312l0.64 2.816h60.416l-0.64-3.968c-4.224-28.096-15.808-49.536-35.072-64-19.2-14.336-45.504-21.312-78.464-21.312z m-394.048 5.888h-61.888v308.224h61.888V532.8h159.872v133.312h61.888V357.888h-61.888v125.696H285.952V357.888z m347.392 164.48c10.24-10.496 24.768-15.68 44.352-15.68 19.008 0 33.664 5.12 44.8 15.744 10.368 10.24 16.128 24.064 16.128 41.856 0 17.856-5.76 32.128-17.024 43.2-11.264 11.008-25.472 16.576-43.904 16.576-18.112 0-32.384-5.184-43.584-15.424-11.136-10.176-16.96-24.32-16.96-42.624 0-18.816 5.376-33.472 16.064-43.52l0.128-0.128z" fill="#5A5A5A" p-id="9958"></path></svg>